<?xml version="1.0" encoding="UTF-8"?>
<svg id="Layer_2" data-name="Layer 2" xmlns="http://www.w3.org/2000/svg" viewBox="0 0 90.71 90.71">
  <defs>
    <style>
      .cls-1 {
        fill: #231f20;
      }

      .cls-2 {
        fill: #a30400;
      }
    </style>
  </defs>
  <g id="Layer_1-2" data-name="Layer 1">
    <circle class="cls-1" cx="45.35" cy="45.35" r="45.35"/>
    <path class="cls-2" d="M61.66,32.93l-10.53,1.67c-.53-1.34-1.01-2.27-1.43-2.79s-1.13-1.04-2.11-1.57v8.19c5.74,1.53,9.57,3.14,11.49,4.84,2.55,2.29,3.82,5.19,3.82,8.7,0,2.06-.46,3.95-1.37,5.67-.92,1.72-2.09,3.15-3.51,4.31s-2.94,1.99-4.54,2.51-3.57.83-5.89.92v5.35h-4.13v-5.35c-2.77-.25-5.03-.69-6.75-1.34s-3.22-1.55-4.47-2.7-2.22-2.39-2.9-3.72-1.19-2.94-1.53-4.83l11.44-1.33c.34,1.87.8,3.22,1.37,4.05s1.52,1.57,2.85,2.21v-10c-3.81-1.06-6.52-1.97-8.11-2.75-1.59-.78-2.98-2.02-4.15-3.73-1.17-1.71-1.76-3.79-1.76-6.24,0-3.36,1.17-6.17,3.52-8.43s5.85-3.51,10.49-3.75v-2.8h4.13v2.8c4.23.26,7.46,1.26,9.7,3s3.69,4.11,4.37,7.13ZM43.46,30.09c-1.21.4-2.05.89-2.52,1.48s-.71,1.28-.71,2.08c0,.84.24,1.56.72,2.18s1.32,1.13,2.51,1.55v-7.28ZM47.59,57.98c1.6-.36,2.78-.95,3.52-1.77.75-.83,1.12-1.75,1.12-2.77,0-.89-.32-1.71-.95-2.46-.63-.75-1.86-1.44-3.7-2.08v9.09Z"/>
  </g>
</svg>